<?xml version="1.0" encoding="UTF-8" standalone="no"?>
<!DOCTYPE svg PUBLIC "-//W3C//DTD SVG 20010904//EN"
              "http://www.w3.org/TR/2001/REC-SVG-20010904/DTD/svg10.dtd">

<svg xmlns="http://www.w3.org/2000/svg"
     width="12.5in" height="12.5in"
     viewBox="0 0 900 900">
  <path id="Sans nom"
        fill="#AF0000" stroke="#AF0000" stroke-width="0"
        d="M 261.25,393.00
           C 261.25,393.00 544.25,550.00 544.25,550.00
             544.25,550.00 447.33,604.00 447.33,604.00
             447.33,604.00 261.00,506.50 261.00,506.50
             261.00,506.50 261.00,594.75 261.00,594.75
             261.00,594.75 446.75,692.50 446.75,692.50
             446.75,692.50 624.00,594.00 624.00,594.00
             624.00,594.00 623.50,496.25 623.50,496.25
             623.50,496.25 342.67,348.00 342.67,348.00
             342.67,348.00 442.00,292.50 442.00,292.50
             442.00,292.50 623.75,393.25 623.75,393.25
             623.75,393.25 623.75,306.75 623.75,306.75
             623.75,306.75 441.33,207.33 441.33,207.33
             441.33,207.33 260.67,306.67 260.67,306.67
             260.67,306.67 261.25,393.00 261.25,393.00 Z
           M 759.63,270.75
           C 764.48,279.08 764.33,291.33 764.33,291.33
             764.33,291.33 764.33,604.33 764.33,604.33
             764.33,604.33 763.90,618.22 758.38,627.75
             752.42,638.02 741.33,644.00 741.33,644.00
             741.33,644.00 466.00,800.33 466.00,800.33
             466.00,800.33 452.44,807.20 440.13,807.13
             426.65,807.04 414.33,800.00 414.33,800.00
             414.33,800.00 140.67,644.67 140.67,645.00
             140.67,645.17 130.54,638.95 125.88,629.75
             121.55,621.22 122.67,609.67 122.67,609.67
             122.67,609.67 122.33,287.00 122.33,287.00
             122.33,287.00 122.26,275.77 127.38,268.13
             133.35,259.20 144.67,253.67 144.67,253.67
             144.67,253.67 417.00,99.33 417.00,99.33
             417.00,99.33 429.29,90.88 442.38,90.88
             453.65,90.88 466.00,99.33 466.00,99.33
             466.00,99.33 743.33,255.33 743.33,255.33
             743.33,255.33 754.04,261.17 759.63,270.75 Z" />
</svg>