<svg xmlns="http://www.w3.org/2000/svg" viewBox="0 0 50 50">
    <path fill="#323232" style="text-indent:0;text-align:start;line-height:normal;text-transform:none;block-progression:tb;-inkscape-font-specification:Sans" d="M 25 3 C 21.698136 3 19 5.6981362 19 9 C 19 12.301864 21.698136 15 25 15 C 28.301864 15 31 12.301864 31 9 C 31 5.6981362 28.301864 3 25 3 z M 25 5 C 27.220984 5 29 6.7790164 29 9 C 29 11.220984 27.220984 13 25 13 C 22.779016 13 21 11.220984 21 9 C 21 6.7790164 22.779016 5 25 5 z M 25 19 C 21.698136 19 19 21.698136 19 25 C 19 28.301864 21.698136 31 25 31 C 28.301864 31 31 28.301864 31 25 C 31 21.698136 28.301864 19 25 19 z M 25 21 C 27.220984 21 29 22.779016 29 25 C 29 27.220984 27.220984 29 25 29 C 22.779016 29 21 27.220984 21 25 C 21 22.779016 22.779016 21 25 21 z M 25 35 C 21.698136 35 19 37.698136 19 41 C 19 44.301864 21.698136 47 25 47 C 28.301864 47 31 44.301864 31 41 C 31 37.698136 28.301864 35 25 35 z M 25 37 C 27.220984 37 29 38.779016 29 41 C 29 43.220984 27.220984 45 25 45 C 22.779016 45 21 43.220984 21 41 C 21 38.779016 22.779016 37 25 37 z" color="#000" overflow="visible" font-family="Sans"></path>
</svg>