<svg xmlns="http://www.w3.org/2000/svg" width="500" height="500" viewBox="0 0 50 50">
    <path fill="#323232" d="M 24.375 4 C 22.578 4 20.6975 5.421 19.9375 7.375 L 19.3125 9 L 14 9 L 14 8 C 14 7.447 13.553 7 13 7 L 6 7 C 5.447 7 5 7.447 5 8 L 5 9.28125 C 2.058 10.15025 0 12.862 0 16 L 0 37 C 0 40.859 3.141 44 7 44 L 43 44 C 46.859 44 50 40.859 50 37 L 50 16 C 50 12.141 46.859 9 43 9 L 40.6875 9 L 40.0625 7.375 C 39.3025 5.42 37.422 4 35.625 4 L 24.375 4 z M 30 13 C 37.168 13 43 18.832 43 26 C 43 33.168 37.168 39 30 39 C 22.832 39 17 33.168 17 26 C 17 18.832 22.832 13 30 13 z M 7 14 C 8.104 14 9 14.896 9 16 C 9 17.104 8.104 18 7 18 C 5.895 18 5 17.104 5 16 C 5 14.896 5.895 14 7 14 z M 30 15 C 23.935 15 19 19.935 19 26 C 19 32.065 23.935 37 30 37 C 36.065 37 41 32.065 41 26 C 41 19.935 36.065 15 30 15 z"></path>
</svg>